<?xml version="1.0" encoding="UTF-8" standalone="no" ?>
<!DOCTYPE svg PUBLIC "-//W3C//DTD SVG 1.1//EN" "http://www.w3.org/Graphics/SVG/1.1/DTD/svg11.dtd">
<svg xmlns="http://www.w3.org/2000/svg" xmlns:xlink="http://www.w3.org/1999/xlink" version="1.1" width="1280" height="1024" viewBox="0 0 1280 1024" xml:space="preserve">
<desc>Created with Fabric.js 5.3.0</desc>
<defs>
</defs>
<g transform="matrix(1 0 0 1 640 512)" id="background-logo"  >
<rect style="stroke: none; stroke-width: 0; stroke-dasharray: none; stroke-linecap: butt; stroke-dashoffset: 0; stroke-linejoin: miter; stroke-miterlimit: 4; fill: rgb(0,99,178); fill-rule: nonzero; opacity: 1;"  paint-order="stroke"  x="-640" y="-512" rx="0" ry="0" width="1280" height="1024" />
</g>
<g transform="matrix(1.9211538461538462 0 0 1.9211538461538462 640 400.11726643416335)" id="logo-logo"  >
<g style=""  paint-order="stroke"   >
		<g transform="matrix(1.0633522530934538 0 0 1.0633522530934538 0 0)"  >
<g style=""  paint-order="stroke"   >
		<g transform="matrix(1 0 0 1 0 0)"  >
<path style="stroke: none; stroke-width: 1; stroke-dasharray: none; stroke-linecap: butt; stroke-dashoffset: 0; stroke-linejoin: miter; stroke-miterlimit: 4; fill: rgb(150,222,255); fill-rule: nonzero; opacity: 1;"  paint-order="stroke"  transform=" translate(-100, -100)" d="M 100 0 C 44.8 0 0 44.8 0 100 C 0 155.2 44.8 200 100 200 C 155.2 200 200 155.2 200 100 C 200 44.80000000000001 155.2 0 100 0 z M 100 190 C 50.4 190 10 149.6 10 100 C 10 50.400000000000006 50.4 10 100 10 C 149.6 10 190 50.4 190 100 C 190 149.6 149.6 190 100 190 z" stroke-linecap="round" />
</g>
</g>
</g>
</g>
</g>
<g transform="matrix(1.9211538461538462 0 0 1.9211538461538462 640.0864519230769 705.6155829582137)" id="text-logo"  >
<g style=""  paint-order="stroke"   >
		<g transform="matrix(1 0 0 1 0 0)" id="text-logo-path-0"  >
<path style="stroke: rgb(255,255,255); stroke-width: 0; stroke-dasharray: none; stroke-linecap: butt; stroke-dashoffset: 0; stroke-linejoin: miter; stroke-miterlimit: 4; fill: rgb(150,222,255); fill-rule: nonzero; opacity: 1;"  paint-order="stroke"  transform=" translate(-107.37, 20.1)" d="M 41.46 -8.82 L 32.88 -13.8 C 30.96 -10.92 27.72 -9 23.88 -9 C 17.76 -9 12.9 -13.92 12.9 -20.1 C 12.9 -26.28 17.82 -31.2 23.88 -31.2 C 27.72 -31.2 31.26 -29.16 33.24 -25.98 L 41.7 -30.9 C 37.92 -36.96 31.32 -40.86 23.88 -40.86 C 16.2 -40.86 9.42 -36.84 5.76 -30.48 C 3.9 -27.3 3 -23.82 3 -20.1 C 3 -12.66 6.96 -5.94 13.38 -2.16 C 16.56 -0.3 20.1 0.66 23.88 0.66 C 31.14 0.66 37.62 -3.06 41.46 -8.82 Z M 77.52 -40.8 C 68.22 -40.8 61.86 -35.94 61.86 -28.32 C 61.86 -22.26 65.4 -18.42 72.48 -16.86 L 80.76 -15.06 C 83.4 -14.52 84.72 -13.56 84.72 -12.18 C 84.72 -10.08 82.68 -9 78.6 -9 C 75.3 -9 71.94 -10.92 70.8 -13.98 L 60.9 -10.5 C 62.58 -3.3 69.42 0.6 78.06 0.6 C 83.64 0.6 88.92 -1.2 92.04 -5.1 C 93.6 -7.02 94.38 -9.42 94.38 -12.24 C 94.38 -18.3 90.78 -22.14 83.52 -23.76 L 75.3 -25.62 C 73.2 -26.1 71.76 -27.06 71.76 -28.32 C 71.76 -30.42 74.22 -31.2 77.4 -31.2 C 81.3 -31.2 83.82 -30.24 84.36 -26.94 L 93.6 -30.54 C 91.62 -37.26 85.44 -40.8 77.52 -40.8 Z M 123.18 0 L 123.18 -19.08 L 131.04 0 L 141.54 0 L 149.46 -19.2 L 149.46 0 L 159.06 0 L 159.06 -40.2 L 147.66 -40.2 L 136.32 -12.6 L 124.92 -40.2 L 113.58 -40.2 L 113.58 0 Z M 194.88 -40.8 C 185.58 -40.8 179.22 -35.94 179.22 -28.32 C 179.22 -22.26 182.76 -18.42 189.84 -16.86 L 198.12 -15.06 C 200.76 -14.52 202.08 -13.56 202.08 -12.18 C 202.08 -10.08 200.04 -9 195.96 -9 C 192.66 -9 189.3 -10.92 188.16 -13.98 L 178.26 -10.5 C 179.94 -3.3 186.78 0.6 195.42 0.6 C 201 0.6 206.28 -1.2 209.4 -5.1 C 210.96 -7.02 211.74 -9.42 211.74 -12.24 C 211.74 -18.3 208.14 -22.14 200.88 -23.76 L 192.66 -25.62 C 190.56 -26.1 189.12 -27.06 189.12 -28.32 C 189.12 -30.42 191.58 -31.2 194.76 -31.2 C 198.66 -31.2 201.18 -30.24 201.72 -26.94 L 210.96 -30.54 C 208.98 -37.26 202.8 -40.8 194.88 -40.8 Z" stroke-linecap="round" />
</g>
</g>
</g>
<g transform="matrix(1.9211538461538462 0 0 1.9211538461538462 641.4581557692306 404.6924504107956)" id="tagline-206eda6f-b020-497c-ac50-dd45961185f2-logo"  >
<g style=""  paint-order="stroke"   >
		<g transform="matrix(1 0 0 1 0 0)" id="tagline-206eda6f-b020-497c-ac50-dd45961185f2-logo-path-0"  >
<path style="stroke: none; stroke-width: 0; stroke-dasharray: none; stroke-linecap: butt; stroke-dashoffset: 0; stroke-linejoin: miter; stroke-miterlimit: 4; fill: rgb(150,222,255); fill-rule: nonzero; opacity: 1;"  paint-order="stroke"  transform=" translate(-51.415, 46.2)" d="M 53.86 2.11 C 73 2.11 88.7 -7 96.49 -22.18 L 78.28 -33.26 C 74.18 -25.21 64.55 -18.74 53.86 -18.74 C 38.81 -18.74 27.72 -30.49 27.72 -46.07 C 27.72 -61.38 38.02 -73.66 53.86 -73.66 C 64.81 -73.66 74.98 -66.79 78.94 -57.68 L 97.15 -69.04 C 89.63 -84.61 74.32 -94.51 53.86 -94.51 C 26 -94.51 5.68 -75.24 5.68 -46.07 C 5.68 -18.22 24.82 2.11 53.86 2.11 Z" stroke-linecap="round" />
</g>
</g>
</g>
<g transform="matrix(1.9211538461538462 0 0 1.9211538461538462 639.7713826923076 795.8476145509965)" id="tagline-9a4d45eb-904d-4042-9e64-26c6a4f38656-logo"  >
<g style=""  paint-order="stroke"   >
		<g transform="matrix(1 0 0 1 0 0)" id="tagline-9a4d45eb-904d-4042-9e64-26c6a4f38656-logo-path-0"  >
<path style="stroke: none; stroke-width: 0; stroke-dasharray: none; stroke-linecap: butt; stroke-dashoffset: 0; stroke-linejoin: miter; stroke-miterlimit: 4; fill: rgb(150,222,255); fill-rule: nonzero; opacity: 1;"  paint-order="stroke"  transform=" translate(-121.575, 9.799880629385713)" d="M 3 -5.35 L 0.98 -4.45 C 2.21 -1.79 4.98 0.28 8.37 0.28 C 13.08 0.28 15.71 -2.74 15.71 -5.43 C 15.71 -9.24 11.62 -10.22 8.48 -11.09 C 5.66 -11.87 3.53 -12.54 3.53 -14.5 C 3.53 -16.44 5.88 -17.78 7.9 -17.78 C 11.31 -17.75 12.26 -16.21 12.88 -14.67 L 14.95 -15.46 C 14.25 -17.22 12.71 -19.88 7.9 -19.88 C 4.96 -19.85 1.29 -17.89 1.29 -14.5 C 1.29 -10.98 4.84 -9.91 7.87 -9.07 C 11 -8.2 13.47 -7.59 13.47 -5.43 C 13.47 -3.81 11.7 -1.82 8.37 -1.82 C 5.96 -1.82 3.95 -3.3 3 -5.35 Z M 28.76 -19.6 L 28.76 0 L 31 0 L 31 -19.6 Z M 45.28 -19.6 L 45.28 0 L 47.52 0 L 47.52 -15.46 L 60.12 0 L 61.52 0 L 61.52 -19.6 L 59.28 -19.6 L 59.28 -4.56 L 46.96 -19.6 Z M 84.84 0.28 C 88.98 0.28 92.6 -2.27 94.11 -5.88 L 91.78 -5.88 C 90.52 -3.36 88 -1.82 84.84 -1.82 C 80.28 -1.82 77 -5.1 77 -9.8 C 77 -14.5 80.28 -17.78 84.84 -17.78 C 87.36 -17.78 89.49 -16.77 90.89 -15.09 L 92.54 -16.3 C 90.69 -18.48 87.92 -19.88 84.84 -19.88 C 79.3 -19.88 74.76 -15.34 74.76 -9.8 C 74.76 -4.26 79.3 0.28 84.84 0.28 Z M 106.93 -19.6 L 106.93 0 L 120.65 0 L 120.65 -2.1 L 109.17 -2.1 L 109.17 -8.76 L 117.85 -8.76 L 117.85 -10.86 L 109.17 -10.86 L 109.17 -17.5 L 120.65 -17.5 L 120.65 -19.6 Z M 148.15 0 L 162.09 0 L 162.09 -2.1 L 150.78 -2.1 C 151.59 -4.14 153.55 -5.46 155.68 -6.72 C 158.7 -8.51 162.29 -10.22 162.29 -13.69 C 162.29 -17.89 158.59 -19.88 155.68 -19.88 C 151.65 -19.88 149.38 -17.36 148.62 -15.46 L 150.7 -14.67 C 151.28 -16.13 152.85 -17.78 155.68 -17.78 C 157.72 -17.75 160.05 -16.46 160.05 -13.69 C 160.05 -11.54 157.56 -10.3 154.56 -8.51 C 151.51 -6.72 148.15 -4.4 148.15 0 Z M 181.92 -1.96 C 178.5 -1.96 176.65 -4.79 176.65 -9.8 C 176.65 -14.98 178.64 -17.64 181.92 -17.64 C 185.3 -17.64 187.18 -14.81 187.18 -9.8 C 187.18 -4.65 185.16 -1.96 181.92 -1.96 Z M 181.92 0.28 C 186.31 0.28 189.28 -3.7 189.28 -9.8 C 189.28 -15.71 186.51 -19.88 181.92 -19.88 C 177.49 -19.88 174.55 -15.93 174.55 -9.8 C 174.55 -3.89 177.3 0.28 181.92 0.28 Z M 201.54 0 L 215.49 0 L 215.49 -2.1 L 204.18 -2.1 C 204.99 -4.14 206.95 -5.46 209.08 -6.72 C 212.1 -8.51 215.68 -10.22 215.68 -13.69 C 215.68 -17.89 211.99 -19.88 209.08 -19.88 C 205.04 -19.88 202.78 -17.36 202.02 -15.46 L 204.09 -14.67 C 204.68 -16.13 206.25 -17.78 209.08 -17.78 C 211.12 -17.75 213.44 -16.46 213.44 -13.69 C 213.44 -11.54 210.95 -10.3 207.96 -8.51 C 204.9 -6.72 201.54 -4.4 201.54 0 Z M 228.59 -9.41 L 230.83 -9.41 C 231.67 -10.64 233.1 -11.37 234.95 -11.37 C 237.97 -11.37 239.93 -9.35 239.93 -6.61 C 239.93 -3.67 237.89 -1.82 234.95 -1.82 C 232.43 -1.82 230.64 -3.22 230.13 -5.32 L 227.95 -4.82 C 228.68 -1.82 231.34 0.28 234.95 0.28 C 239.09 0.31 242.17 -2.49 242.17 -6.61 C 242.17 -10.53 239.23 -13.47 234.95 -13.47 C 233.46 -13.44 232.2 -13.13 231.11 -12.52 L 231.53 -17.5 L 240.72 -17.5 L 240.72 -19.6 L 229.49 -19.6 Z" stroke-linecap="round" />
</g>
</g>
</g>
</svg>